<?xml version="1.0" standalone="no"?>
<!DOCTYPE svg PUBLIC "-//W3C//DTD SVG 20010904//EN"
 "http://www.w3.org/TR/2001/REC-SVG-20010904/DTD/svg10.dtd">
<svg version="1.0" xmlns="http://www.w3.org/2000/svg"
 width="700.000000pt" height="700.000000pt" viewBox="0 0 700.000000 700.000000"
 preserveAspectRatio="xMidYMid meet">
<metadata>
Created by potrace 1.11, written by Peter Selinger 2001-2013
</metadata>
<g transform="translate(0.000000,700.000000) scale(0.100000,-0.100000)"
fill="#000000" stroke="none">
<path d="M4692 6399 c-235 -28 -463 -176 -636 -412 -126 -172 -248 -459 -272
-642 -3 -27 -8 -52 -9 -55 -17 -28 -24 -303 -12 -430 37 -382 216 -716 469
-873 181 -113 400 -137 596 -66 241 87 455 297 597 584 60 122 126 310 141
400 3 22 12 76 19 120 13 80 14 404 1 455 -3 13 -8 42 -12 65 -8 56 -41 176
-70 252 -127 338 -391 575 -669 599 -33 3 -64 7 -70 8 -5 1 -38 -1 -73 -5z"/>
<path d="M2071 6379 c-234 -60 -447 -268 -563 -551 -27 -67 -62 -183 -73 -240
-3 -13 -10 -48 -17 -78 -13 -61 -17 -395 -6 -475 30 -205 75 -354 163 -530
149 -299 360 -501 616 -591 59 -21 97 -27 189 -30 107 -3 207 10 226 29 4 4
14 7 23 7 19 0 120 52 177 91 105 72 222 215 297 364 40 80 101 258 112 325
64 408 22 738 -137 1065 -99 204 -259 395 -418 500 -189 124 -393 164 -589
114z"/>
<path d="M550 4338 c-212 -27 -385 -173 -478 -400 -25 -63 -38 -106 -48 -163
-3 -16 -9 -50 -14 -75 -9 -49 -6 -269 5 -340 62 -414 316 -773 625 -881 54
-19 86 -23 185 -23 110 -1 126 2 190 28 262 108 412 372 419 736 6 345 -124
685 -348 905 -124 122 -270 199 -401 212 -27 2 -54 5 -60 7 -5 1 -39 -2 -75
-6z"/>
<path d="M6321 4337 c-152 -19 -284 -89 -411 -216 -179 -181 -289 -411 -336
-701 -10 -67 -12 -265 -2 -329 34 -225 131 -416 266 -524 132 -105 314 -142
483 -97 94 24 148 50 229 111 190 139 335 366 405 634 51 197 55 438 10 609
-38 145 -100 258 -190 350 -123 126 -287 185 -454 163z"/>
<path d="M3295 3353 c-43 -3 -204 -23 -245 -30 -36 -6 -242 -63 -265 -72 -11
-5 -56 -24 -100 -42 -388 -161 -752 -506 -1002 -949 -64 -114 -77 -142 -146
-300 -100 -231 -178 -524 -171 -643 16 -271 125 -488 308 -616 155 -108 312
-104 546 14 142 71 212 113 457 276 317 209 533 293 748 289 76 -1 94 -3 140
-13 17 -4 41 -9 54 -12 95 -18 367 -141 478 -215 24 -17 46 -30 49 -30 3 0 10
-5 17 -10 7 -6 86 -59 177 -119 404 -265 551 -318 725 -263 132 41 302 181
365 301 19 35 35 69 37 75 1 6 9 36 18 66 19 63 29 298 15 370 -4 25 -11 61
-14 80 -17 111 -76 316 -133 459 -172 439 -438 800 -763 1037 -249 181 -551
296 -890 340 -43 5 -350 11 -405 7z"/>
</g>
</svg>
